<svg xmlns="http://www.w3.org/2000/svg" viewBox="0 0 180 180">
  <defs>
    <linearGradient id="grad-apple" x1="0%" y1="0%" x2="100%" y2="100%">
      <stop offset="0%" style="stop-color:#3b82f6;stop-opacity:1" />
      <stop offset="100%" style="stop-color:#8b5cf6;stop-opacity:1" />
    </linearGradient>
  </defs>
  
  <!-- Background -->
  <rect width="180" height="180" rx="40" fill="url(#grad-apple)"/>
  
  <!-- Map pin base -->
  <path d="M90 45c-18.5 0-33.5 15-33.5 33.5 0 25 33.5 56 33.5 56s33.5-30.5 33.5-56c0-18.5-15-33.5-33.5-33.5z" 
        fill="#ffffff" opacity="0.95"/>
  
  <!-- Inner circle of pin -->
  <circle cx="90" cy="78.5" r="14" fill="#3b82f6"/>
  
  <!-- People icons (community) -->
  <g opacity="0.9">
    <!-- Left person -->
    <circle cx="50" cy="140" r="8" fill="#ffffff"/>
    <path d="M50 150c-6 0-11 2-11 5.5h22c0-3.5-5-5.5-11-5.5z" fill="#ffffff"/>
    
    <!-- Center person -->
    <circle cx="90" cy="140" r="8" fill="#ffffff"/>
    <path d="M90 150c-6 0-11 2-11 5.5h22c0-3.5-5-5.5-11-5.5z" fill="#ffffff"/>
    
    <!-- Right person -->
    <circle cx="130" cy="140" r="8" fill="#ffffff"/>
    <path d="M130 150c-6 0-11 2-11 5.5h22c0-3.5-5-5.5-11-5.5z" fill="#ffffff"/>
  </g>
</svg>
