<svg xmlns="http://www.w3.org/2000/svg" viewBox="0 0 32 32">
  <defs>
    <linearGradient id="grad" x1="0%" y1="0%" x2="100%" y2="100%">
      <stop offset="0%" style="stop-color:#3b82f6;stop-opacity:1" />
      <stop offset="100%" style="stop-color:#8b5cf6;stop-opacity:1" />
    </linearGradient>
  </defs>
  
  <!-- Background circle -->
  <circle cx="16" cy="16" r="15" fill="url(#grad)"/>
  
  <!-- Map pin base -->
  <path d="M16 8c-3.3 0-6 2.7-6 6 0 4.5 6 10 6 10s6-5.5 6-10c0-3.3-2.7-6-6-6z" 
        fill="#ffffff" opacity="0.95"/>
  
  <!-- Inner circle of pin -->
  <circle cx="16" cy="14" r="2.5" fill="#3b82f6"/>
  
  <!-- People icons (community) -->
  <g transform="translate(0, 0)" opacity="0.9">
    <!-- Left person -->
    <circle cx="9" cy="25" r="1.5" fill="#ffffff"/>
    <path d="M9 27c-1.1 0-2 0.3-2 1h4c0-0.7-0.9-1-2-1z" fill="#ffffff"/>
    
    <!-- Right person -->
    <circle cx="23" cy="25" r="1.5" fill="#ffffff"/>
    <path d="M23 27c-1.1 0-2 0.3-2 1h4c0-0.7-0.9-1-2-1z" fill="#ffffff"/>
  </g>
</svg>
